<mxfile>
    <diagram id="B9imWvU3-mCyOA17thxm" name="Page-1">
        <mxGraphModel dx="1902" dy="804" grid="1" gridSize="10" guides="1" tooltips="1" connect="1" arrows="1" fold="1" page="1" pageScale="1" pageWidth="850" pageHeight="1100" math="0" shadow="0">
            <root>
                <mxCell id="0"/>
                <mxCell id="1" parent="0"/>
                <mxCell id="76" style="edgeStyle=orthogonalEdgeStyle;rounded=0;orthogonalLoop=1;jettySize=auto;html=1;exitX=1;exitY=0.5;exitDx=0;exitDy=0;entryX=0;entryY=0.5;entryDx=0;entryDy=0;" edge="1" parent="1" source="74" target="72">
                    <mxGeometry relative="1" as="geometry"/>
                </mxCell>
                <mxCell id="74" value="&lt;span style=&quot;font-size: 28px&quot;&gt;&lt;b&gt;利用者側の&lt;br&gt;要求変化&lt;/b&gt;&lt;/span&gt;" style="ellipse;whiteSpace=wrap;html=1;aspect=fixed;fillColor=none;dashed=1;strokeWidth=4;" vertex="1" parent="1">
                    <mxGeometry x="-800" y="460" width="180" height="180" as="geometry"/>
                </mxCell>
                <mxCell id="77" style="edgeStyle=orthogonalEdgeStyle;rounded=0;orthogonalLoop=1;jettySize=auto;html=1;" edge="1" parent="1" source="75" target="72">
                    <mxGeometry relative="1" as="geometry"/>
                </mxCell>
                <mxCell id="75" value="&lt;span style=&quot;font-size: 28px&quot;&gt;&lt;b&gt;開発者側の&lt;br&gt;要求変化&lt;/b&gt;&lt;/span&gt;" style="ellipse;whiteSpace=wrap;html=1;aspect=fixed;fillColor=none;dashed=1;strokeWidth=4;" vertex="1" parent="1">
                    <mxGeometry x="-230" y="460" width="180" height="180" as="geometry"/>
                </mxCell>
                <mxCell id="72" value="&lt;font style=&quot;font-size: 28px&quot;&gt;&lt;b&gt;自由度の高い&lt;br&gt;Web&lt;br&gt;プラットフォーム&lt;/b&gt;&lt;/font&gt;" style="ellipse;whiteSpace=wrap;html=1;aspect=fixed;fillColor=none;strokeWidth=4;" vertex="1" parent="1">
                    <mxGeometry x="-555" y="420" width="260" height="260" as="geometry"/>
                </mxCell>
                <mxCell id="78" value="&lt;span style=&quot;font-size: 18px&quot;&gt;マルチデバイス&lt;/span&gt;" style="rounded=1;whiteSpace=wrap;html=1;fillColor=none;gradientColor=none;" vertex="1" parent="1">
                    <mxGeometry x="-800" y="690" width="180" height="60" as="geometry"/>
                </mxCell>
                <mxCell id="79" value="&lt;span style=&quot;font-size: 18px&quot;&gt;応答速度&lt;/span&gt;" style="rounded=1;whiteSpace=wrap;html=1;fillColor=none;gradientColor=none;" vertex="1" parent="1">
                    <mxGeometry x="-800" y="770" width="180" height="60" as="geometry"/>
                </mxCell>
                <mxCell id="80" value="&lt;span style=&quot;font-size: 18px&quot;&gt;リッチな&lt;br&gt;インタラクション&lt;/span&gt;" style="rounded=1;whiteSpace=wrap;html=1;fillColor=none;gradientColor=none;" vertex="1" parent="1">
                    <mxGeometry x="-800" y="850" width="180" height="60" as="geometry"/>
                </mxCell>
                <mxCell id="81" value="&lt;span style=&quot;font-size: 18px&quot;&gt;開発効率性&lt;/span&gt;" style="rounded=1;whiteSpace=wrap;html=1;fillColor=none;gradientColor=none;" vertex="1" parent="1">
                    <mxGeometry x="-230" y="690" width="180" height="60" as="geometry"/>
                </mxCell>
                <mxCell id="82" value="&lt;span style=&quot;font-size: 18px&quot;&gt;型安全&lt;/span&gt;" style="rounded=1;whiteSpace=wrap;html=1;fillColor=none;gradientColor=none;" vertex="1" parent="1">
                    <mxGeometry x="-230" y="770" width="180" height="60" as="geometry"/>
                </mxCell>
                <mxCell id="83" value="&lt;span style=&quot;font-size: 18px&quot;&gt;再利用性&lt;/span&gt;" style="rounded=1;whiteSpace=wrap;html=1;fillColor=none;gradientColor=none;" vertex="1" parent="1">
                    <mxGeometry x="-230" y="850" width="180" height="60" as="geometry"/>
                </mxCell>
            </root>
        </mxGraphModel>
    </diagram>
</mxfile>